<svg xmlns="http://www.w3.org/2000/svg" xmlns:xlink="http://www.w3.org/1999/xlink" width="326" height="150"><defs><path id="a" d="M0 202.5h360V0H0z"/><linearGradient id="c" x1="0%" x2="107.944%" y1="60.45%" y2="60.45%"><stop offset="0%" stop-color="#A1C2F9"/><stop offset="100%" stop-color="#FAFCFF"/></linearGradient><path id="d" d="M14.527 0c-1.145.007-2.307.159-3.465.469C3.77 2.423-.557 9.918 1.396 17.209l.602 2.199 26.392-7.329-.587-1.945C26.173 4.055 20.693.037 14.69 0h-.163z"/><linearGradient id="e" x1="50%" x2="50%" y1="50%" y2="100%"><stop offset="0%" stop-color="#FFD23D"/><stop offset="100%" stop-color="#FFF"/></linearGradient><linearGradient id="f" x1="50%" x2="50%" y1="0%" y2="100%"><stop offset="0%" stop-color="#EFF0F2"/><stop offset="100%" stop-color="#FFF"/></linearGradient><linearGradient id="g" x1="50%" x2="50%" y1="50%" y2="100%"><stop offset="0%" stop-color="#EFF0F2"/><stop offset="100%" stop-color="#FFF"/></linearGradient><path id="h" d="M2.733 7.555L.297 71.357c-.15 3.94 2.703 7.356 6.607 7.911l6.214.882c4.004.568 8.026.85 12.037.85h.014c13.356-.001 26.586-3.125 38.608-9.194l4.556-2.301c1.583-.8 2.485-2.386 2.501-4.025v-.09c-.008-.81-.234-1.63-.7-2.371L30.536.105 2.733 7.555z"/><linearGradient id="i" x1="50%" x2="50%" y1="51.277%" y2="98.001%"><stop offset="0%" stop-color="#ECEDEF"/><stop offset="100%" stop-color="#FDFDFD"/></linearGradient><path id="k" d="M.162 8.157c1.742 6.503 9.379 10.107 17.057 8.049C24.897 14.149 29.708 7.21 27.966.707L.162 8.157z"/><path id="m" d="M.455 1.385c0 .59 5.313 1.069 11.867 1.069 6.555 0 11.867-.479 11.867-1.069 0-.591-5.312-1.069-11.867-1.069C5.768.316.455.794.455 1.385"/><linearGradient id="n" x1="75%" x2="25.843%" y1="75%" y2="75%"><stop offset="0%" stop-color="#D9DBDE"/><stop offset="100%" stop-color="#F0F1F3"/></linearGradient><linearGradient id="p" x1="52.702%" x2="59.137%" y1="18.766%" y2="81.906%"><stop offset="0%" stop-color="#2C66BF"/><stop offset="100%" stop-color="#EFF0F3"/></linearGradient><path id="q" d="M16.022 3.3C7.084 5.783.021 8.448.245 9.257c.224.807 7.651-.551 16.589-3.032C25.772 3.742 32.836 1.076 32.612.268c-.044-.158-.364-.233-.917-.233-2.273 0-8.485 1.269-15.673 3.265"/></defs><g fill="none" fill-rule="evenodd" transform="translate(-4 -34)"><mask id="b" fill="#fff"><use xlink:href="#a"/></mask><g mask="url(#b)"><use fill="url(#c)" transform="translate(153 74)" xlink:href="#d"/><path fill="#9FC1F9" d="M168.6874 90.2486c-1.571.479-3.231-.407-3.71-1.977l-.955-3.134c-.478-1.571.408-3.232 1.978-3.71h.001c1.57-.479 3.231.406 3.709 1.977l.955 3.134c.478 1.571-.407 3.232-1.978 3.71"/><path fill="url(#e)" d="M125.926627 12.2811395c-.899056-.205751-1.835036-.3144263-2.796358-.3144263-6.903748-.0003365-12.5 5.603956-12.5 12.5168701 0 6.9139236 5.596252 12.5182161 12.5 12.5182161.203589 0 .406042-.0048739.607248-.0145116-2.106582 1.1469587-4.521082 1.7985045-7.08752 1.7985045-8.206703 0-14.859146-6.662-14.859146-14.8808 0-8.2176 6.652443-14.87960002 14.859146-14.87920002 3.509191 0 6.734316 1.21821382 9.27663 3.25534722z" transform="rotate(-40 162.56611613 35.41104516)"/><path fill="url(#f)" d="M325.672508 57.0376656c-.326801-2.4613186-2.425619-4.3617948-4.972673-4.3617948-.534973 0-1.049792.0855955-1.533487.2406895-.254093-4.1264711-3.6744-7.3949427-7.858517-7.3949427-.636253 0-1.254393.0774192-1.847022.2202487C308.051307 43.6081103 305.634872 42.2 302.889085 42.2c-4.34943 0-7.875354 3.5313905-7.875354 7.8875641 0 .6387727.077809 1.2594041.221183 1.8542292-.182916-.0201852-.368384-.0324497-.556658-.0324497-2.773339 0-5.021909 2.2518012-5.021909 5.0296955 0 .0332162.004337.0654103.005102.0986265h36.011059z" transform="translate(4 34)"/><path fill="url(#f)" d="M129.900417 62.1810111c-1.171314-8.8218333-8.69388-15.6335011-17.823003-15.6335011-1.917445 0-3.762654.3067906-5.49631.8626769-.910717-14.7900557-13.169747-26.5048788-28.1664161-26.5048788-2.280452 0-4.4959833.2774852-6.6200771.7894135C66.7426873 14.0469348 58.0817245 9 48.2403033 9 32.6511189 9 20.013538 21.657174 20.013538 37.2705277c0 2.2894823.2788845 4.5139433.7927634 6.6459092-.6556071-.0723476-1.3203579-.1163057-1.9951669-.1163057-9.94017376 0-17.99947758 8.0708831-17.99947758 18.0273838 0 .1190531.01554438.234443.0182875.3534961H129.900417z" opacity=".9" transform="translate(4 34)"/><path fill="url(#g)" d="M293.888545 39.1788034c-.852929-6.4238925-6.33072-11.3840205-12.978375-11.3840205-1.396247 0-2.739894.2233991-4.002309.6281851-.663167-10.7698396-9.589961-19.30035282-20.510253-19.30035282-1.660582 0-3.27389.20205953-4.820615.57483602-3.678716-5.56897402-9.985465-9.24405674-17.151803-9.24405674-11.35175 0-20.554198 9.21671535-20.554198 20.58606494 0 1.6671578.203079 3.2869683.577276 4.8394257-.477401-.0526822-.96146-.0846916-1.452843-.0846916-7.238247 0-13.10688 5.8770648-13.10688 13.1272007 0 .0866923.011319.170717.013317.2574092h93.986683z" transform="translate(4 34)"/><path fill="#2C66BF" d="M183.7675 89.1245l-4.324.673c-6.781 1.055-13.408 2.935-19.733 5.599l-4.923 2.073-.81-2.815c-.179-.62.134-1.277.729-1.528l3.701-1.565c6.317-2.672 12.937-4.562 19.712-5.627l3.412-.537c.636-.1 1.247.289 1.424.908l.812 2.819z"/><path fill="#6199F6" d="M132.0595 110.5992c-.17-.632.017-1.36.66-1.808l6.188-4.309c9.13-6.359 19.296-11.084 30.043-13.963 10.747-2.88 21.913-3.871 32.999-2.929l7.514.638c.781.066 1.306.602 1.475 1.234l-39.469 9.46-39.41 11.677z"/><path fill="#80ADF7" d="M132.0595 110.5992c.169.632.694 1.168 1.475 1.235l7.514.638c11.086.941 22.252-.05 32.999-2.929 10.747-2.88 20.913-7.605 30.043-13.964l6.188-4.309c.643-.448.83-1.175.66-1.808l-32.789 7.023c-4.927 1.056-9.798 2.363-14.593 3.915l-31.497 10.199z"/><g transform="translate(157 103)"><mask id="j" fill="#fff"><use xlink:href="#h"/></mask><path fill="url(#i)" d="M2.733 7.555L.297 71.357c-.15 3.94 2.703 7.356 6.607 7.911l6.214.882c4.004.568 8.026.85 12.037.85h.014c13.356-.001 26.586-3.125 38.608-9.194l4.556-2.301c1.583-.8 2.485-2.386 2.501-4.025v-.09c-.008-.81-.234-1.63-.7-2.371L30.536.105 2.733 7.555z" mask="url(#j)" opacity=".5"/></g><g><path fill="#37A952" d="M180.9456179 122.70867518l3.44085584-1.2523691s1.993041 3.54212859.56839612 4.02779242c-1.42464489.48566383-2.4420651.888839-3.3000134 1.20110664.6401597-1.7830437-.70923856-3.97652996-.70923856-3.97652996z"/><path fill="#E2594F" d="M200.2794136 156.54302407l-9.76219055 3.55314678s2.4295952 12.16145498 6.40925633 10.61251085c3.9796611-1.54894423 6.92848121-2.52176093 9.36260091-3.40770805-4.75252262-3.00867237-6.00966668-10.75794958-6.00966668-10.75794958z"/><path fill="#FFB900" d="M177.82211481 147.60341684s7.2641225-1.959216 7.1588716-2.38026238c-.10518845-.42117584-2.5248691-6.93702085-2.63640674-9.75204464 0 0-5.77910655 1.682072-7.43406814 2.28442876 0 0 .67097747 4.483944 2.91160328 9.84787826z"/></g><g transform="translate(160 104)"><mask id="l" fill="#fff"><use xlink:href="#k"/></mask><path fill="url(#g)" d="M.162 8.157c1.742 6.503 9.379 10.107 17.057 8.049C24.897 14.149 29.708 7.21 27.966.707L.162 8.157z" mask="url(#l)"/></g><g transform="translate(176 170)"><mask id="o" fill="#fff"><use xlink:href="#m"/></mask><path fill="url(#n)" d="M.455 1.385c0 .59 5.313 1.069 11.867 1.069 6.555 0 11.867-.479 11.867-1.069 0-.591-5.312-1.069-11.867-1.069C5.768.316.455.794.455 1.385" mask="url(#o)"/></g><path fill="#FFF" d="M169.661 77.7027c0-.999.81-1.808 1.808-1.808.999 0 1.808.809 1.808 1.808s-.809 1.808-1.808 1.808c-.998 0-1.808-.809-1.808-1.808" opacity=".4"/><g transform="translate(158 102)"><use fill="url(#p)" xlink:href="#q"/></g></g></g></svg>