<?xml version="1.0" encoding="utf-8"?>
<svg viewBox="0 0 320 309.36" version="1.1" id="Layer_1" xmlns="http://www.w3.org/2000/svg" xmlns:xlink="http://www.w3.org/1999/xlink" x="0px" y="0px" xml:space="preserve">
    <defs>
        <style>.cls-1,.cls-11,.cls-12,.cls-2,.cls-21,.cls-28,.cls-29,.cls-30,.cls-36,.cls-39,.cls-43,.cls-55,.cls-56,.cls-57,.cls-58,.cls-9{fill:none;}.cls-2{stroke:#fff;}.cls-11,.cls-12,.cls-2,.cls-21,.cls-28,.cls-29,.cls-30,.cls-36,.cls-39,.cls-43,.cls-55,.cls-56,.cls-57,.cls-58,.cls-9{stroke-miterlimit:10;}.cls-3{fill:#b4dbf1;}.cls-4{fill:#88bde6;}.cls-5{fill:#f3f3f4;}.cls-6{fill:#d84127;}.cls-7{fill:#f5b087;}.cls-8{clip-path:url(#clip-path);}.cls-11,.cls-9{stroke:#252424;stroke-width:1.14px;}.cls-10{fill:#c5957a;}.cls-11,.cls-21,.cls-28,.cls-43,.cls-57,.cls-58{stroke-linecap:round;}.cls-12{stroke:#e59a76;stroke-width:0.32px;}.cls-13{clip-path:url(#clip-path-2);}.cls-14{fill:#e58f64;}.cls-15{fill:#9388be;}.cls-16{fill:#8074af;}.cls-17{fill:#252424;}.cls-18{clip-path:url(#clip-path-3);}.cls-19{fill:#d69370;}.cls-20{fill:#d86c4e;}.cls-21,.cls-55,.cls-56{stroke:#d84127;}.cls-21{stroke-width:1.06px;}.cls-22{clip-path:url(#clip-path-4);}.cls-23{opacity:0.29;}.cls-24{clip-path:url(#clip-path-5);}.cls-25{fill:#f9bfb1;}.cls-26{fill:#cc6e7c;}.cls-27{fill:#fff;}.cls-28,.cls-29,.cls-30{stroke:#cdcccb;}.cls-28,.cls-30{stroke-width:0.7px;}.cls-29{stroke-width:0.69px;}.cls-31{fill:#cdcccb;}.cls-32{fill:#d6caa9;}.cls-33{fill:#facfc8;}.cls-34{fill:#e0d7c1;}.cls-35{fill:#414045;}.cls-36{stroke:#777778;stroke-width:0.82px;}.cls-37{fill:#e57e8a;}.cls-38{fill:#ee9889;}.cls-39{stroke:#ee9889;stroke-width:0.89px;}.cls-40{clip-path:url(#clip-path-6);}.cls-41{fill:url(#linear-gradient);}.cls-42{fill:#1d1e1d;}.cls-43,.cls-58{stroke:#1d1e1d;}.cls-43{stroke-width:2.11px;}.cls-44{fill:#e29e8f;}.cls-45{clip-path:url(#clip-path-7);}.cls-46{fill:#6b0e34;}.cls-47{fill:#c42329;}.cls-48{fill:#615d66;}.cls-49{fill:#777778;}.cls-50{fill:#3d271f;}.cls-51{fill:#623e32;}.cls-52{fill:#4395d1;}.cls-53{fill:#ad7c60;}.cls-54{fill:url(#linear-gradient-2);}.cls-55{stroke-width:1.19px;}.cls-56{stroke-width:1.46px;}.cls-57{stroke:#a76a59;stroke-width:1.17px;}.cls-58{stroke-width:1.36px;}.cls-59{fill:#8f572e;}.cls-60{fill:#c9dfe8;}.cls-61{fill:#accbd6;}</style>
        <clipPath id="clip-path">
            <path class="cls-1" d="M44.95,99.43a6.17,6.17,0,0,1,9.17-.92l22.63,17.09L72,125.83l-25.14-17.4a6.18,6.18,0,0,1-1.91-9Z"></path>
        </clipPath>
        <clipPath id="clip-path-2">
            <rect class="cls-1" x="28.98" y="76.39" width="9.98" height="22.51" rx="4.99" ry="4.99" transform="translate(67.94 175.28) rotate(180)"></rect>
        </clipPath>
        <clipPath id="clip-path-3">
            <path class="cls-1" d="M17.5,96.53l11.34-3.27H39.1l11.13,3.63L54.12,132a2.69,2.69,0,0,1-2.64,3l-35.06.36a2.69,2.69,0,0,1-2.71-2.9Z"></path>
        </clipPath>
        <clipPath id="clip-path-4">
            <polygon class="cls-1" points="18.35 74.29 52.58 76.25 53.27 55.07 18.17 52.53 18.35 74.29"></polygon>
        </clipPath>
        <clipPath id="clip-path-5">
            <path class="cls-1" d="M20.83,96.13a6.17,6.17,0,0,0-7,6l-3.38,27.85,12-3.25L26,103.76a6.18,6.18,0,0,0-5.15-7.63Z"></path>
        </clipPath>
        <clipPath id="clip-path-6">
            <path class="cls-1" d="M258.74,56.42l1-11.4a1.89,1.89,0,0,1,1.72-1.57l15-1.13a1.89,1.89,0,0,1,1.94,1.3,16.62,16.62,0,0,0,1.4,4.32c1.12,2.33,18.78,30.22,18.48,26.19L295,29.49,248.29,33l3,39.38Z"></path>
        </clipPath>
        <linearGradient id="linear-gradient" x1="271.32" y1="64.68" x2="271.32" y2="35.18" gradientUnits="userSpaceOnUse">
            <stop offset="0.36" stop-color="#f9bfb1"></stop>
            <stop offset="0.88" stop-color="#1d1e1d"></stop>
        </linearGradient>
        <clipPath id="clip-path-7">
            <path class="cls-1" d="M270.44,64.22a18,18,0,0,0,2.85-.68c.33-.11.71-.05.74.12v.05c.14.9-1.17,3.1-3.15,3.4h0c-2,.31-3.88-1.39-4-2.3v-.06c0-.2.31-.32.66-.32A18,18,0,0,0,270.44,64.22Z"></path>
        </clipPath>
        <linearGradient id="linear-gradient-2" x1="2456.15" y1="250.98" x2="2456.15" y2="224.5" gradientTransform="matrix(-0.97, -0.26, -0.26, 0.97, 2654.92, 564.78)" gradientUnits="userSpaceOnUse">
            <stop offset="0.29" stop-color="#d8b095"></stop>
            <stop offset="0.53"></stop>
        </linearGradient>
    </defs>
    <g id="Layer_1" data-name="Layer 1">
        <polyline class="cls-2" points="0 274.5 70.89 274.5 70.89 0 211.39 0 203.37 274.5 220.74 274.5"></polyline>
        <polygon class="cls-3" points="197.43 274.72 77.67 274.72 77.67 8.92 201.68 7.69 197.43 274.72"></polygon>
        <polygon class="cls-2" points="139.75 169.56 139.68 27.93 100.56 27.42 101.85 169.4 139.75 169.56"></polygon>
        <polygon class="cls-2" points="101.9 174.54 102.66 258.66 139.79 259.2 139.75 174.72 101.9 174.54"></polygon>
        <polygon class="cls-2" points="183.06 169.74 184.38 28.5 144.88 27.99 144.79 169.58 183.06 169.74"></polygon>
        <polygon class="cls-2" points="144.78 174.74 144.73 259.27 182.22 259.81 183.01 174.92 144.78 174.74"></polygon>
        <rect class="cls-4" x="83.16" y="132.61" width="10.73" height="31.37"></rect>
        <ellipse class="cls-5" cx="89.07" cy="141.05" rx="4.61" ry="4.86"></ellipse>
        <path class="cls-6" d="M10.83,127.55c-6.39-3.05-10.3-5.24-10-11.09s5.57-6.65,6.06-9.3-6-7.39-1.56-14.35c3.07-4.79,11.69-12,12.7-22.43l32.54,1.7c-1.39,14.36,14.74,18,5.88,33.24-.32.55-1.3,1-1.45,2.2-.36,2.88,4.82,6.68,4,12.2-1.76,12.15-14.23,8.53-14.23,8.53S17.21,130.61,10.83,127.55Z"></path>
        <circle class="cls-7" cx="50.19" cy="103.24" r="5.83" transform="translate(-62.81 82.99) rotate(-53.91)"></circle>
        <polygon class="cls-7" points="46.74 107.92 72.44 125.64 78.13 117.42 53.56 98.53 46.74 107.92"></polygon>
        <circle class="cls-5" cx="49.95" cy="103.07" r="6.19" transform="translate(-62.76 82.72) rotate(-53.91)"></circle>
        <polygon class="cls-5" points="46.29 108.03 72 125.83 76.75 115.59 53.53 98.06 46.29 108.03"></polygon>
        <g class="cls-8">
            <line class="cls-9" x1="66.13" y1="83.16" x2="43.14" y2="117.63"></line>
            <line class="cls-9" x1="71.94" y1="86.71" x2="48.95" y2="121.18"></line>
            <line class="cls-9" x1="77.75" y1="90.26" x2="54.77" y2="124.73"></line>
            <line class="cls-9" x1="83.57" y1="93.81" x2="60.58" y2="128.28"></line>
            <line class="cls-9" x1="89.28" y1="97.12" x2="66.29" y2="131.6"></line>
        </g>
        <circle class="cls-10" cx="74.37" cy="121.01" r="4.96" transform="translate(-64.36 151.47) rotate(-70.81)"></circle>
        <polygon class="cls-7" points="84.2 96.3 79.21 122.07 69.56 119.79 79.92 94.81 84.2 96.3"></polygon>
        <polygon class="cls-7" points="84.77 92.58 84.08 97.12 79.56 95.58 81.55 91.21 84.77 92.58"></polygon>
        <circle class="cls-5" cx="74.35" cy="121.04" r="5.3" transform="translate(-64.41 151.48) rotate(-70.81)"></circle>
        <polygon class="cls-5" points="80.65 116.41 79.53 122.17 69.22 119.74 71.66 113.86 80.65 116.41"></polygon>
        <path class="cls-5" d="M70.63,119.38s-1.86-2.34-1.44-2.63,1,.56,1-.05-.18-1.17.46-.89,3,1.26,3,1.26Z"></path>
        <circle class="cls-7" cx="83.28" cy="91.78" r="1.7" transform="translate(-24.3 153.33) rotate(-77.55)"></circle>
        <line class="cls-9" x1="71.68" y1="113.66" x2="70.94" y2="125.09"></line>
        <line class="cls-11" x1="71.66" y1="113.86" x2="78.74" y2="124.01"></line>
        <line class="cls-9" x1="71.66" y1="113.86" x2="80.65" y2="116.4"></line>
        <path class="cls-7" d="M81,83.14A1.44,1.44,0,0,1,82,81.85l3.8-1.47a.9.9,0,0,1,1.15.55l.27,2a.9.9,0,0,1-.32,1l-.79.74A2,2,0,0,0,85.54,86s.72,4.11.48,4.93a3.92,3.92,0,0,1-1.62,1.93l-1.22.78a1.07,1.07,0,0,1-1.6-.6Z"></path>
        <path class="cls-12" d="M83.5,85.85l1.19-2.43c.18-.37.61-.83,1.08-.46s0,1.53,0,1.53l-.42,1.38"></path>
        <path class="cls-5" d="M17.5,96.53l11.34-3.27H39.1l11.13,3.63L54.12,132a2.69,2.69,0,0,1-2.64,3l-35.06.36a2.69,2.69,0,0,1-2.71-2.9Z"></path>
        <path class="cls-7" d="M21.89,95.26S29,99.13,36.11,98.85s11-3,11-3l-8.14-3h-10Z"></path>
        <rect class="cls-7" x="28.98" y="76.39" width="9.98" height="22.51" rx="4.99" ry="4.99" transform="translate(67.94 175.28) rotate(180)"></rect>
        <g class="cls-13">
            <ellipse class="cls-14" cx="35.13" cy="76.6" rx="11.18" ry="16.05" transform="translate(-8.28 4.37) rotate(-6.37)"></ellipse>
            <circle class="cls-14" cx="36.32" cy="90.74" r="3.25" transform="translate(-9.84 4.59) rotate(-6.37)"></circle>
        </g>
        <path class="cls-15" d="M43.86,206.25a8.11,8.11,0,0,1-8.4,8.42,9.21,9.21,0,0,1-8.63-9.09,8.11,8.11,0,0,1,8.4-8.42A9.21,9.21,0,0,1,43.86,206.25Z"></path>
        <polygon class="cls-16" points="43.85 206.25 36.47 277.55 30.12 277.3 26.82 205.58 43.85 206.25"></polygon>
        <path class="cls-16" d="M30.08,277.07l-.86,4.76a2.1,2.1,0,0,0,.15.53c1,2.12,3.53,1.7,4.81,1.24l1.1-.32c.67-.2,12.24,1.25,13.45,1.16s1.34-1.52-.42-2.51-5.55-3-6.15-3.3a31.26,31.26,0,0,1-3.59-2.32c-.88-.89-4.08-3.83-4.08-3.83Z"></path>
        <path class="cls-17" d="M29.67,279.82l-.44,2c.76,3.69,5,1.55,7.73,1.67,0,0,10.68,1.09,11.79,1,1.5-.19,1-1.64-.42-2.51-.68-.4-4.36-2.32-6.15-3.3A17.63,17.63,0,0,1,29.67,279.82Z"></path>
        <polygon class="cls-16" points="43.82 206.75 49.68 139.4 26.63 145.59 26.85 205.16 43.82 206.75"></polygon>
        <path class="cls-16" d="M43.81,206.83a8.11,8.11,0,0,1-9,7.83,9.21,9.21,0,0,1-8-9.66,8.11,8.11,0,0,1,9-7.83A9.21,9.21,0,0,1,43.81,206.83Z"></path>
        <path class="cls-15" d="M39.21,204.79A8.11,8.11,0,0,1,30.57,213a9.21,9.21,0,0,1-8.36-9.34,8.11,8.11,0,0,1,8.65-8.17A9.21,9.21,0,0,1,39.21,204.79Z"></path>
        <polygon class="cls-15" points="39.22 204.79 29.71 275.84 23.37 275.4 22.21 203.61 39.22 204.79"></polygon>
        <path class="cls-15" d="M24.47,272l-2.91,9.14a2.1,2.1,0,0,0,0,.56c.51,2.28,3.08,2.42,4.43,2.25l1.14-.08c.7,0,11.69,3.86,12.88,4s1.63-1.2.13-2.54-4.78-4.1-5.3-4.55a31.26,31.26,0,0,1-3-3c-.66-1.06-3.16-4.61-3.16-4.61Z"></path>
        <path class="cls-17" d="M22.43,279.28l-.87,1.87c0,3.77,4.56,2.6,7.19,3.29,0,0,10.19,3.36,11.31,3.47,1.5.14,1.38-1.38.13-2.54-.57-.54-3.76-3.2-5.3-4.55A17.63,17.63,0,0,1,22.43,279.28Z"></path>
        <polygon class="cls-15" points="39.16 205.35 47.02 142.13 24.15 146.34 22.26 203.13 39.16 205.35"></polygon>
        <path class="cls-15" d="M39.15,205.43a8.11,8.11,0,0,1-9.24,7.49,9.21,9.21,0,0,1-7.62-10,8.11,8.11,0,0,1,9.24-7.49A9.21,9.21,0,0,1,39.15,205.43Z"></path>
        <path class="cls-17" d="M51.47,134.92s3.84,27.09,7.09,38.82a102.31,102.31,0,0,1,3.68,24.55s-11.12,1-24,2.92c-19.59,3-29.14-4.6-29.14-4.6s5.21-7.34,6.23-15.6c.7-5.68,4.37-45.7,4.37-45.7Z"></path>
        <g class="cls-18">
            <line class="cls-9" x1="13.47" y1="102.88" x2="54.87" y2="101.22"></line>
            <line class="cls-9" x1="13.47" y1="109.69" x2="54.87" y2="108.03"></line>
            <line class="cls-9" x1="13.47" y1="116.5" x2="54.87" y2="114.84"></line>
            <line class="cls-9" x1="13.47" y1="123.32" x2="54.87" y2="121.65"></line>
            <line class="cls-9" x1="13.47" y1="130.13" x2="54.87" y2="128.46"></line>
        </g>
        <ellipse class="cls-6" cx="34.32" cy="71.6" rx="15.54" ry="16.3" transform="translate(-38.27 103.76) rotate(-88.29)"></ellipse>
        <ellipse class="cls-7" cx="35.47" cy="74.22" rx="15.65" ry="10.9" transform="translate(-39.78 107.45) rotate(-88.29)"></ellipse>
        <path class="cls-6" d="M35.47,57.43c4.29,0,9.85,3.62,11.71,8.45s2.41,9.8.34,10.09c-2.39.34-4.36-.52-4.25-4.1a6.56,6.56,0,0,1,.06-.69,10,10,0,0,1-2,.15c-3.46-.1-8-3.42-9-6.6-.35,3.67-1.83,5.18-5.2,6.22a2.49,2.49,0,0,1,0,2,3.6,3.6,0,0,1-3.7,2C21.66,74.92,19.51,57.43,35.47,57.43Z"></path>
        <circle class="cls-7" cx="36.04" cy="88.03" r="3.17" transform="translate(-53.03 121.42) rotate(-88.29)"></circle>
        <path class="cls-19" d="M35.37,80.45h0l0-2.25a.89.89,0,0,1,.9-.89h0a.89.89,0,0,1,.89.9l0,2.25h0a.77.77,0,0,1,.77.78h0a.48.48,0,0,1-.48.47H36.9v.24a.65.65,0,0,1-.66.65h0a.65.65,0,0,1-.65-.66V81.7h-.54a.48.48,0,0,1-.47-.48h0A.77.77,0,0,1,35.37,80.45Z"></path>
        <g id="_Group_" data-name="&lt;Group&gt;">
            <circle id="_Path_" data-name="&lt;Path&gt;" cx="39.93" cy="76.38" r="0.95" transform="matrix(1, 0, 0, 1, -0.35, 0.18)"></circle>
            <circle id="_Path_2" data-name="&lt;Path&gt;" cx="32.26" cy="76.43" r="0.94" transform="translate(-0.35 0.15) rotate(-0.26)"></circle>
        </g>
        <path id="_Path_3" data-name="&lt;Path&gt;" class="cls-20" d="M36,86.38a4.55,4.55,0,0,0,2.75-.9.76.76,0,0,0-.91-1.22,3,3,0,0,1-3.65,0,.76.76,0,1,0-.93,1.21,4.55,4.55,0,0,0,2.74.94"></path>
        <path class="cls-21" d="M41.75,72.62a2.46,2.46,0,0,0-3.4-.77"></path>
        <path class="cls-21" d="M33.94,71.85a2.46,2.46,0,0,0-3.42.65"></path>
        <g class="cls-22">
            <path class="cls-17" d="M48,72.14a13.35,13.35,0,0,0-12.79-14,13.76,13.76,0,0,0-4.73,26.67,12.66,12.66,0,0,1,4.8-24.35A12.28,12.28,0,0,1,47,73.33a12.79,12.79,0,0,1-5.6,10.2A13.89,13.89,0,0,0,48,72.14Z"></path>
        </g>
        <ellipse class="cls-7" cx="23.3" cy="76.93" rx="2.16" ry="3.38" transform="translate(-28.59 15.54) rotate(-23.36)"></ellipse>
        <g class="cls-23">
            <circle class="cls-6" cx="29.81" cy="78.92" r="0.32" transform="translate(-1.8 0.7) rotate(-1.31)"></circle>
            <circle class="cls-6" cx="32.54" cy="79.35" r="0.43" transform="translate(-1.8 0.76) rotate(-1.31)"></circle>
            <circle class="cls-6" cx="31.01" cy="80.39" r="0.31" transform="translate(-1.83 0.73) rotate(-1.31)"></circle>
            <circle class="cls-6" cx="40.29" cy="79.03" r="0.3" transform="translate(-1.8 0.94) rotate(-1.31)"></circle>
            <circle class="cls-6" cx="41.3" cy="80.19" r="0.28" transform="translate(-1.82 0.96) rotate(-1.31)"></circle>
            <circle class="cls-6" cx="42.11" cy="78.77" r="0.22" transform="translate(-1.79 0.98) rotate(-1.31)"></circle>
        </g>
        <ellipse class="cls-7" cx="46.65" cy="77.01" rx="3.38" ry="2.16" transform="translate(-43.12 83.95) rotate(-63.21)"></ellipse>
        <circle class="cls-10" cx="19.93" cy="102.55" r="5.83" transform="translate(-84.53 104.27) rotate(-79.95)"></circle>
        <polygon class="cls-7" points="25.65 103.54 19.4 134.13 9.6 132.13 14.22 101.49 25.65 103.54"></polygon>
        <circle class="cls-5" cx="19.98" cy="102.26" r="6.19" transform="translate(-84.06 108.03) rotate(-82.12)"></circle>
        <polygon class="cls-5" points="26.09 103.07 21.44 132.76 10.31 130.83 13.88 101.36 26.09 103.07"></polygon>
        <g class="cls-24">
            <line class="cls-9" x1="-6.31" y1="101.8" x2="34.76" y2="107.31"></line>
            <line class="cls-9" x1="-7.49" y1="108.51" x2="33.58" y2="114.02"></line>
            <line class="cls-9" x1="-8.66" y1="115.22" x2="32.4" y2="120.73"></line>
            <line class="cls-9" x1="-9.84" y1="121.93" x2="31.23" y2="127.44"></line>
            <line class="cls-9" x1="-11.6" y1="126.44" x2="29.16" y2="133.83"></line>
        </g>
        <polygon class="cls-7" points="11.5 158.59 10.63 132.36 20.55 132.43 16.02 159.09 11.5 158.59"></polygon>
        <circle class="cls-5" cx="15.59" cy="132.27" r="5.3" transform="translate(-117.59 133.22) rotate(-83.69)"></circle>
        <polygon class="cls-5" points="10.49 138.2 10.29 132.32 20.89 132.4 19.82 138.68 10.49 138.2"></polygon>
        <line class="cls-9" x1="20.7" y1="133.68" x2="10.58" y2="130.53"></line>
        <line class="cls-9" x1="19.82" y1="138.68" x2="10.49" y2="138.2"></line>
        <polygon class="cls-7" points="11.63 163.61 11.5 158.59 16.19 158.25 15.22 162.96 11.63 163.61"></polygon>
        <g id="_Group_2" data-name="&lt;Group&gt;">
            <path id="_Path_4" data-name="&lt;Path&gt;" class="cls-7" d="M15.08,165.34a3.56,3.56,0,0,1-.15,2.73c-.71,1.65-1.29,1.59-1.18,3.36l.76,2.12c.24.68.62,2.15-.1,2.41l-.29.1a.68.68,0,0,1-.6-.48c-.43-1.48-2.65-3.79-2.69-6.35a33.35,33.35,0,0,1,.63-4.33,24.47,24.47,0,0,0,.21-3.08l3.62.38Z"></path>
            <path id="_Path_5" data-name="&lt;Path&gt;" class="cls-7" d="M12.76,165.09l1.5,3.84.87,3.11a.6.6,0,0,0,.65.43.59.59,0,0,0,.54-.61l-.22-3.49L14.93,164Z"></path>
        </g>
        <polygon class="cls-25" points="261.83 158.05 258.9 162.38 252.14 158.8 256.14 152.68 261.83 158.05"></polygon>
        <circle class="cls-25" cx="259.97" cy="159.95" r="2.68" transform="translate(-32.59 246.99) rotate(-48.17)"></circle>
        <g id="_Group_3" data-name="&lt;Group&gt;">
            <path class="cls-25" d="M276,171l-.34.29c-.86.73-2.47-.84-3.15-1.66l-2.16-2.54a4.37,4.37,0,0,0-3.28-.9,13.21,13.21,0,0,1-1.9-.08,5.27,5.27,0,0,1-3.6-1.83l0-2.23-.08-3.84a49,49,0,0,1,8.25,3.53c3.24,1.95,4.55,6.5,6.13,8.15A1,1,0,0,1,276,171Z"></path>
            <path class="cls-25" d="M270.14,170.5a.86.86,0,0,1-1.18.25l-6.36-4.11a6.16,6.16,0,0,1-1.57-1.46l-2-2.63,2.46-.45,0,2.23a5.27,5.27,0,0,0,3.6,1.83,13.21,13.21,0,0,0,1.9.08l3,3.12A.89.89,0,0,1,270.14,170.5Z"></path>
        </g>
        <circle class="cls-25" cx="260.89" cy="160.75" r="2.57" transform="translate(-45.55 159.33) rotate(-31.37)"></circle>
        <path class="cls-25" d="M252.68,77l-24.57,43.82c-.52,1.21-4,6.78,2.24,11.08l21.79,26.95,5.59-4.62-13.41-26.89c-.92-1-.09-3.13.87-4.38l23-25.51Z"></path>
        <circle class="cls-26" cx="260.23" cy="87.18" r="13.22" transform="translate(-10.11 39.87) rotate(-8.59)"></circle>
        <path class="cls-26" d="M248.53,81s-13.65,22.83-13.16,22.77,18.27,12,18.27,12l14.52-18.38Z"></path>
        <path class="cls-27" d="M253.08,288.13l-11.67.19v-1.89a2.63,2.63,0,0,1,1.86-2.61l8.38-1.89"></path>
        <path class="cls-27" d="M251.64,281.93l1-.25,9.44-3.76,4.44,2.23a5.54,5.54,0,0,0,4.18.32l2.47-.8a1,1,0,0,1,1.31.72h0a13.92,13.92,0,0,1,.06,6.69v.05l-23.18,1.06"></path>
        <path class="cls-27" d="M253.3,290.3l-12,0a.38.38,0,0,1-.37-.39v-1.9a.38.38,0,0,1,.37-.39l11.81,0"></path>
        <path class="cls-27" d="M251.31,287.72l23.1-.71a.38.38,0,0,1,.39.37l.06,1.85a.38.38,0,0,1-.37.39l-21.18.69"></path>
        <line class="cls-28" x1="260.17" y1="278.67" x2="261.31" y2="281.01"></line>
        <line class="cls-28" x1="258.31" y1="279.36" x2="259.45" y2="281.69"></line>
        <line class="cls-28" x1="256.46" y1="280.15" x2="257.6" y2="282.48"></line>
        <line class="cls-29" x1="241.41" y1="287.37" x2="251.29" y2="287.5"></line>
        <line class="cls-30" x1="251.29" y1="287.5" x2="274.56" y2="286.77"></line>
        <circle class="cls-31" cx="257.52" cy="282.42" r="0.53" transform="translate(-93.91 432.66) rotate(-70.79)"></circle>
        <circle class="cls-31" cx="259.45" cy="281.69" r="0.53" transform="translate(-91.93 433.99) rotate(-70.79)"></circle>
        <circle class="cls-31" cx="261.31" cy="281.01" r="0.53" transform="translate(-90.04 435.29) rotate(-70.79)"></circle>
        <circle class="cls-32" cx="271.79" cy="135.91" r="20.94" transform="translate(120.55 399.47) rotate(-86.72)"></circle>
        <polygon class="cls-32" points="292.71 136.96 280.64 201.71 256.57 200.33 250.77 136.66 292.71 136.96"></polygon>
        <path class="cls-33" d="M262.24,279.57c0-.29-1.14-32.57-1.14-32.57l10.7.19.37,34Z"></path>
        <circle class="cls-32" cx="268.42" cy="201.78" r="12.08" transform="translate(-2.14 2.87) rotate(-0.61)"></circle>
        <polygon class="cls-32" points="280.46 201.45 273.05 274.49 261.73 273.6 256.34 201.91 280.46 201.45"></polygon>
        <polygon class="cls-34" points="315.51 145.13 308.44 199.38 283.84 200.72 279.52 147.94 315.51 145.13"></polygon>
        <circle class="cls-34" cx="298.82" cy="144.6" r="16.7" transform="matrix(0.78, -0.63, 0.63, 0.78, -24.18, 221.25)"></circle>
        <ellipse class="cls-26" cx="275.96" cy="72.65" rx="11.56" ry="10" transform="translate(-9.39 74.92) rotate(-15.21)"></ellipse>
        <path id="_Path_6" data-name="&lt;Path&gt;" class="cls-35" d="M316.86,155.31s-19.5,2.23-35.86,5a65.69,65.69,0,0,1-31.55-2.92s3-71.35,3.15-77.11c.06-2.88,6.58-6.94,6.58-6.94s10.21-4.31,16.27-5.26,25.76,4.15,25.76,4.15Z"></path>
        <path class="cls-36" d="M267.83,73.11a8.23,8.23,0,1,0,15.51-5.39"></path>
        <path class="cls-37" d="M251.73,76.86c2.16-2.48,10.91-4.66,15.07-6l-.25,6.7,2.81,3.52L260,137.45a3.48,3.48,0,0,1-2.2,2.55l-7.86,2.89a34.1,34.1,0,0,1-6.44-9.34c0-.28,3.77-.55,4.91-7.58,1.91-11.83,3-32.15,1.84-38.42C249.77,85,250,78.87,251.73,76.86Z"></path>
        <path class="cls-38" d="M266.62,79.52l-10.09,60.93,1.82-.74a2.2,2.2,0,0,0,1.5-1.65l9.51-57Z"></path>
        <path class="cls-38" d="M262,94l-.54,6.82a1.92,1.92,0,0,1-2.06,1.76l-4-.32a1.92,1.92,0,0,1-1.76-2.06l.54-6.82Z"></path>
        <polygon class="cls-38" points="253.63 95.35 253.81 93.02 262.35 93.69 262.16 96.02 257.68 98.49 253.63 95.35"></polygon>
        <path class="cls-37" d="M254.14,93.4,262,94l-.14,1.79-4.12,2.26L254,95.19l.14-1.79m-.65-.76-.06.7-.14,1.79,0,.38.3.23,3.71,2.88.36.28.4-.22,4.12-2.26.33-.18,0-.38.14-1.79.05-.7-.7-.05-7.83-.62-.7-.06Z"></path>
        <polygon class="cls-38" points="266.85 68.09 264.29 71.08 263.23 81.21 266.56 79.83 269.36 81.07 266.55 77.55 266.85 68.09"></polygon>
        <line class="cls-39" x1="250.5" y1="89.03" x2="266.3" y2="88.59"></line>
        <path class="cls-37" d="M312.4,87.44c-.13-2.25.3-8.94-6.66-13.1-5.47-3.27-16.54-5.94-22-7.79L285,74.8l-1.28,4.4,4.14,83.49c17.58.54,18.78-4.28,32.15-5.27-.28-.67-2.12-18.08-4.76-29.71C311.9,113,312.4,87.44,312.4,87.44Z"></path>
        <polygon class="cls-38" points="285.69 76.68 288.93 162.64 286.19 163.19 283.71 79.2 285.69 76.68"></polygon>
        <polygon class="cls-38" points="283.76 64.66 287.04 67.59 288.93 80.79 285.41 79.77 284.02 83.68 283.39 78.88 284.76 75.59 283.76 64.66"></polygon>
        <path class="cls-38" d="M298.8,93.62l.12,6.84a1.92,1.92,0,0,1-1.88,2l-4,.07a1.92,1.92,0,0,1-2-1.88l-.12-6.84Z"></path>
        <polygon class="cls-38" points="290.63 95.76 290.59 93.42 299.15 93.26 299.19 95.6 294.96 98.49 290.63 95.76"></polygon>
        <path class="cls-37" d="M298.8,93.62l0,1.8L295,98.07l-4-2.51,0-1.8,7.85-.14m.69-.71h-.7l-7.85.14h-.7v.7l0,1.8V96l.32.2,4,2.51.39.25.38-.26L299.23,96l.31-.21v-.38l0-1.8v-.7Z"></path>
        <line class="cls-39" x1="286.16" y1="89.03" x2="304.18" y2="89.85"></line>
        <path class="cls-25" d="M276.16,77.71h0c-5,.17-7.82-3.39-7.71-7.68l-.64-25.7,14.3.68.73,25C283.16,74.12,280.88,77.55,276.16,77.71Z"></path>
        <path class="cls-25" d="M257.71,51.28c.83,8.11,7.59,14.09,15.11,13.34s12.95-7.93,12.12-16-7.59-14.09-15.11-13.34S256.88,43.16,257.71,51.28Z"></path>
        <path id="_Path_7" data-name="&lt;Path&gt;" class="cls-25" d="M259.35,58.76c.89,8.72,6.9,15.26,13.42,14.62s11.1-8.24,10.21-17-6.9-15.26-13.42-14.62S258.47,50,259.35,58.76Z"></path>
        <g class="cls-40">
            <path class="cls-41" d="M257.71,51.28c.83,8.11,7.59,14.09,15.11,13.34s12.95-7.93,12.12-16-7.59-14.09-15.11-13.34S256.88,43.16,257.71,51.28Z"></path>
        </g>
        <g id="_Group_4" data-name="&lt;Group&gt;">
            <ellipse id="_Path_8" data-name="&lt;Path&gt;" cx="273.03" cy="54.79" rx="0.93" ry="0.95" transform="translate(-4.1 27.43) rotate(-5.71)"></ellipse>
            <ellipse id="_Path_9" data-name="&lt;Path&gt;" cx="264.55" cy="55.63" rx="0.92" ry="0.94" transform="translate(-4.22 26.59) rotate(-5.71)"></ellipse>
        </g>
        <g id="_Group_5" data-name="&lt;Group&gt;">
            <g id="_Group_6" data-name="&lt;Group&gt;">
                <path id="_Path_10" data-name="&lt;Path&gt;" class="cls-25" d="M257.47,57.79c1.12,2.07,2.81,3.4,3.77,3s.84-2.45-.28-4.52-2.81-3.4-3.77-3S256.35,55.72,257.47,57.79Z"></path>
            </g>
            <g id="_Group_7" data-name="&lt;Group&gt;">
                <path id="_Path_11" data-name="&lt;Path&gt;" class="cls-25" d="M286.27,55.08c-.7,2.24-2.25,3.83-3.47,3.55s-1.64-2.33-.95-4.57,2.25-3.83,3.47-3.55S287,52.83,286.27,55.08Z"></path>
            </g>
        </g>
        <path class="cls-42" d="M261.53,60l1.26,3.58a.85.85,0,0,0,1.51,0h0A3.55,3.55,0,0,1,267,61.67l7.19-.79a3.53,3.53,0,0,1,3.05,1.23h0a.85.85,0,0,0,1.48-.33l2.32-4.35a1.48,1.48,0,0,1,1.86-1h0A1.77,1.77,0,0,1,284.15,58l.26,3.62a12.77,12.77,0,0,1-2.3,8.35h0a11.32,11.32,0,0,1-8,4.74L272,74.9A11.27,11.27,0,0,1,263.25,72h0a12.72,12.72,0,0,1-4-7.65l-.52-3.59a1.77,1.77,0,0,1,.86-1.78h0C260.43,58.61,261.13,59,261.53,60Z"></path>
        <path class="cls-43" d="M265.68,50.54a2.92,2.92,0,0,0-3.65.54"></path>
        <line class="cls-43" x1="270.61" y1="50.91" x2="274.91" y2="50.54"></line>
        <path id="_Path_12" data-name="&lt;Path&gt;" class="cls-44" d="M267.72,60.44h0a.18.18,0,0,0,.16-.2l-.43-3.33a1.48,1.48,0,0,1,1.27-1.66h0a1.49,1.49,0,0,1,1.65,1.3l.43,3.33c0,.1.1.22.2.2l.13,0a.73.73,0,0,1,.84.69h0a.85.85,0,0,1-.63,1l-.31,0-.43.05a.32.32,0,0,0-.31.36v0a.68.68,0,0,1-.59.76h0a.69.69,0,0,1-.76-.61v0a.32.32,0,0,0-.39-.27l-.43.05-.18,0a1,1,0,0,1-1-.8h0A.86.86,0,0,1,267.72,60.44Z"></path>
        <g class="cls-45">
            <polygon class="cls-46" points="265.84 63.57 275.24 62.12 276.02 67.13 266.63 68.58 265.84 63.57"></polygon>
            <ellipse class="cls-47" cx="272.65" cy="67.14" rx="2.33" ry="1.93" transform="translate(-7.06 42.47) rotate(-8.79)"></ellipse>
            <ellipse class="cls-47" cx="270.15" cy="67.52" rx="2.33" ry="1.93" transform="translate(-7.15 42.09) rotate(-8.79)"></ellipse>
            <path class="cls-27" d="M261.53,59.56c.59,3.79,4.79,6.28,9.36,5.57s7.81-4.35,7.22-8.14-4.79-6.28-9.36-5.57S260.94,55.77,261.53,59.56Z"></path>
        </g>
        <rect class="cls-48" x="259.95" y="38.29" width="10.76" height="4.87" transform="translate(-2.3 19.96) rotate(-4.29)"></rect>
        <path class="cls-42" d="M260.15,43.55a7.27,7.27,0,0,1-1.59-3.14c-.37-1.93.85-6.59,6.74-7,8.84-.67,14,4.18,17.37,2.67a6.28,6.28,0,0,1-2.81,6.56c-3.39,2.13-10.35,2.79-13.9.15-2.65-2-2.76-1.86-3.75-1.79C259.95,41.13,260.15,43.55,260.15,43.55Z"></path>
        <path class="cls-33" d="M296.43,282.66c0-.3-2.92-32-2.92-32l10.93-.34.39,36.38Z"></path>
        <circle class="cls-34" cx="296.25" cy="199.95" r="12.34" transform="translate(-18.74 31.05) rotate(-5.82)"></circle>
        <polygon class="cls-34" points="308.46 198.5 305.27 277.88 294.76 276.13 283.98 201.21 308.46 198.5"></polygon>
        <path class="cls-27" d="M285.75,289.8l-11.67.19v-1.89a2.63,2.63,0,0,1,1.86-2.61l8.38-1.89"></path>
        <path class="cls-27" d="M284.32,283.6l1-.25,9.44-3.76,4.44,2.23a5.54,5.54,0,0,0,4.18.32l2.47-.8a1,1,0,0,1,1.31.72h0a13.92,13.92,0,0,1,.06,6.69v.05L284,289.86"></path>
        <path class="cls-27" d="M286,292l-12,0a.38.38,0,0,1-.37-.39v-1.9a.38.38,0,0,1,.37-.39l11.81,0"></path>
        <path class="cls-27" d="M284,289.39l23.1-.71a.38.38,0,0,1,.39.37l.06,1.85a.38.38,0,0,1-.37.39L286,292"></path>
        <line class="cls-28" x1="292.84" y1="280.35" x2="293.99" y2="282.68"></line>
        <line class="cls-28" x1="290.99" y1="281.03" x2="292.13" y2="283.36"></line>
        <line class="cls-28" x1="289.13" y1="281.82" x2="290.28" y2="284.15"></line>
        <line class="cls-29" x1="274.08" y1="289.04" x2="283.97" y2="289.17"></line>
        <line class="cls-30" x1="283.97" y1="289.17" x2="307.24" y2="288.44"></line>
        <circle class="cls-31" cx="290.2" cy="284.09" r="0.53" transform="translate(-73.57 464.63) rotate(-70.79)"></circle>
        <circle class="cls-31" cx="292.13" cy="283.36" r="0.53" transform="translate(-71.59 465.97) rotate(-70.79)"></circle>
        <circle class="cls-31" cx="293.99" cy="282.68" r="0.53" transform="translate(-69.7 467.26) rotate(-70.79)"></circle>
        <polygon class="cls-25" points="265.69 140.61 265.69 145.84 273.3 146.67 273.41 139.36 265.69 140.61"></polygon>
        <circle class="cls-25" cx="266.17" cy="143.23" r="2.68" transform="translate(-16.84 37.08) rotate(-7.72)"></circle>
        <g id="_Group_8" data-name="&lt;Group&gt;">
            <path class="cls-25" d="M246.7,143.44l.12.43c.3,1.09,2.51.69,3.54.4l3.21-.89a4.37,4.37,0,0,1,3.21,1.09,13.21,13.21,0,0,0,1.62,1,5.27,5.27,0,0,0,4,.5l1.28-1.82,2.22-3.14a49,49,0,0,0-8.81-1.7c-3.78-.2-7.42,2.83-9.64,3.31A1,1,0,0,0,246.7,143.44Z"></path>
            <path class="cls-25" d="M251.83,146.26a.86.86,0,0,0,.84.87l7.58.16a6.16,6.16,0,0,0,2.12-.33l3.12-1.07-1.78-1.75L262.42,146a5.27,5.27,0,0,1-4-.5,13.21,13.21,0,0,1-1.62-1l-4.26.88A.89.89,0,0,0,251.83,146.26Z"></path>
        </g>
        <circle class="cls-25" cx="264.96" cy="143.38" r="2.57" transform="translate(-35.61 122.9) rotate(-24.52)"></circle>
        <path class="cls-25" d="M316.35,89.5l-4.64,54.94a3.85,3.85,0,0,1-4.26,3.12l-34.16-.9-2-7,23.79-3.85c1.3-.27,1.83-2.55,1.74-4.11L290.38,90Z"></path>
        <circle class="cls-26" cx="303.34" cy="87.44" r="13.22" transform="translate(33.41 251.15) rotate(-47.32)"></circle>
        <polygon class="cls-26" points="290.13 87.93 316.53 86.62 317.52 115.99 292.35 113.96 290.13 87.93"></polygon>
        <polygon class="cls-35" points="265.81 140.57 265.97 146.6 268.63 146.93 268.71 140.84 265.81 140.57"></polygon>
        <ellipse class="cls-35" cx="267.19" cy="140.94" rx="1.71" ry="2.79" transform="translate(94.49 388.79) rotate(-82.94)"></ellipse>
        <ellipse class="cls-49" cx="267.23" cy="140.63" rx="0.97" ry="1.95" transform="translate(94.83 388.55) rotate(-82.94)"></ellipse>
        <polygon class="cls-50" points="226.41 275.48 146.26 289.61 146.29 267.43 208.21 244.16 226.41 275.48"></polygon>
        <path id="_Path_13" data-name="&lt;Path&gt;" class="cls-51" d="M242,257.14l.16,4.2s-9.66,16-22.11,16c-12.94,0-16.49-15.48-26.21-22.23V249Z"></path>
        <g id="_Group_9" data-name="&lt;Group&gt;">
            <path class="cls-27" d="M218.59,185a1.3,1.3,0,0,0,0-2.6,1.3,1.3,0,0,0,0,2.6Z"></path>
        </g>
        <circle class="cls-52" cx="189.32" cy="241.06" r="6.81" transform="translate(-115.34 207.35) rotate(-45.54)"></circle>
        <circle class="cls-52" cx="199.58" cy="198.71" r="9.02" transform="translate(-43.54 340.86) rotate(-75.19)"></circle>
        <polygon class="cls-52" points="208.32 200.98 195.66 243.06 182.51 241.28 190.87 196.34 208.32 200.98"></polygon>
        <polygon class="cls-10" points="148.1 259.82 186.27 237.73 190.84 249.32 150 265.64 148.1 259.82"></polygon>
        <polygon class="cls-52" points="151.83 257.55 186.66 236.65 191.84 249.78 154.34 265.11 151.83 257.55"></polygon>
        <path class="cls-52" d="M184.06,249a7,7,0,1,1,7,1.09,7,7,0,0,1-7-1.09Z"></path>
        <path id="_Path_14" data-name="&lt;Path&gt;" class="cls-10" d="M148.67,261.85s-7.1-2.33-8.39-3.07c-2.06-1.18-4.29-5.23-4.29-5.23a1,1,0,0,1,0-1.25.94.94,0,0,1,1.29-.15s2.09,2.32,3.67,2.79,3.45.18,4.52.45a7.44,7.44,0,0,1,2.3,1.08l4.68,3.36Z"></path>
        <path id="_Path_15" data-name="&lt;Path&gt;" class="cls-10" d="M146.24,258.9a5.22,5.22,0,0,0-3.88,1c-2.16,1.49-1.91,2.31-4.49,2.67l-3.27-.47c-1.05-.15-3.27-.27-3.44.83l-.07.44a1,1,0,0,0,.86.72c2.25.19,6.22,2.72,9.9,2a48.18,48.18,0,0,0,8.46-2.79Z"></path>
        <path id="_Path_16" data-name="&lt;Path&gt;" class="cls-10" d="M147.69,259.29a5.22,5.22,0,0,0-3.79,1.3c-2,1.66-1.73,2.45-4.27,3l-3.3-.22c-1.06-.07-3.29,0-3.36,1.1l0,.44a1,1,0,0,0,.91.65c2.26,0,6.41,2.22,10,1.26a48.18,48.18,0,0,0,8.22-3.44Z"></path>
        <path id="_Path_17" data-name="&lt;Path&gt;" class="cls-10" d="M149.16,259.48a5.22,5.22,0,0,0-3.61,1.75c-1.82,1.89-1.42,2.64-3.87,3.5l-3.3.18c-1.06.06-3.26.38-3.21,1.5l0,.44a1,1,0,0,0,1,.54c2.24-.26,6.63,1.44,10.11,0a32.69,32.69,0,0,0,6.18-3.36Z"></path>
        <path id="_Path_18" data-name="&lt;Path&gt;" class="cls-10" d="M146,259.24a7.59,7.59,0,0,0-4.35-.43c-3.62.7-4.83-2-4.75-3.23-.5-1.61-1.24-3-2.3-2.69l-.42.14a1,1,0,0,0-.25,1.09c.85,2.09,1.14,8,4.68,9.2a48.18,48.18,0,0,0,8.72,1.8Z"></path>
        <circle class="cls-10" cx="150.86" cy="261.95" r="2.67" transform="translate(-118.93 125.6) rotate(-33.25)"></circle>
        <polygon class="cls-51" points="227.67 277.47 280.19 295.77 291.64 272.6 237.33 247.41 227.67 277.47"></polygon>
        <circle class="cls-51" cx="233.72" cy="262.97" r="15.71" transform="translate(-95.35 138.51) rotate(-27.65)"></circle>
        <path id="_Path_19" data-name="&lt;Path&gt;" class="cls-27" d="M245.14,250.26a8,8,0,0,1-5,10.07c-8.46,2.91-21.72,6.51-30.64,4.33a37.82,37.82,0,0,1-15.22-8.22,5.32,5.32,0,0,1-1.15-6.68c2-3.45,4.46-10.5,4.88-24.38.18-5.84.74-17.15,1.29-24.9l1.4-10.56s10.33-3.23,16.3-3.59,23.1,2.94,23.1,2.94,2.19,45.76,3.14,52.43A53,53,0,0,0,245.14,250.26Z"></path>
        <path class="cls-52" d="M211.83,190.23A8,8,0,1,0,226.67,186c-2.43.11-4.72.22-6.45.32a53,53,0,0,0-8,1.32A7.86,7.86,0,0,0,211.83,190.23Z"></path>
        <path class="cls-52" d="M199,205.89l14.82-13.21s11,.6,11.45,1c3.51,3.51,7.27,7.85,13.33,13.07l2.9-17.18s-11.53-2.48-18.22-3.6c-2.33-.39-4.59.21-6.27.32a51.51,51.51,0,0,0-7.75,1.28c-4.5,1-9.31,2.08-9.31,2.08s-1,8.45-1,10.79S199,205.89,199,205.89Z"></path>
        <path id="_Rectangle_" data-name="&lt;Rectangle&gt;" class="cls-53" d="M213.49,178.73h13a0,0,0,0,1,0,0V190a6.48,6.48,0,0,1-6.48,6.48h0a6.48,6.48,0,0,1-6.48-6.48V178.73A0,0,0,0,1,213.49,178.73Z" transform="translate(14.69 -15.97) rotate(4.3)"></path>
        <g id="_Group_10" data-name="&lt;Group&gt;">
            <g id="_Group_11" data-name="&lt;Group&gt;">
                <path id="_Path_20" data-name="&lt;Path&gt;" class="cls-10" d="M207,170.49c.7,1.93,2,3.3,2.91,3.06s1.07-2,.37-3.94-2-3.3-2.91-3.06S206.27,168.56,207,170.49Z"></path>
            </g>
        </g>
        <circle cx="232.34" cy="163.09" r="2.63" transform="translate(-31.67 267.38) rotate(-56.62)"></circle>
        <circle cx="232.17" cy="159.7" r="3.49" transform="translate(-28.92 265.73) rotate(-56.62)"></circle>
        <circle cx="230.47" cy="154.8" r="2.63" transform="translate(-25.59 262.1) rotate(-56.62)"></circle>
        <path d="M229.13,154a3.34,3.34,0,0,1-4.37.57,2.69,2.69,0,0,1-1.13-3.87,3.34,3.34,0,0,1,4.37-.57A2.69,2.69,0,0,1,229.13,154Z"></path>
        <ellipse class="cls-54" cx="220.01" cy="164.25" rx="12.64" ry="13.28" transform="translate(-27.74 45.93) rotate(-11.22)"></ellipse>
        <ellipse id="_Path_21" data-name="&lt;Path&gt;" class="cls-10" cx="219.55" cy="171.65" rx="13.49" ry="11.2" transform="translate(36.11 381.46) rotate(-86.86)"></ellipse>
        <circle id="_Path_22" data-name="&lt;Path&gt;" class="cls-10" cx="218.79" cy="183.45" r="4.17" transform="translate(23.62 391.85) rotate(-86.86)"></circle>
        <circle cx="217.16" cy="157.95" r="2.91" transform="translate(47.54 366.12) rotate(-86.86)"></circle>
        <circle cx="212.01" cy="161.31" r="3.64" transform="matrix(0.05, -1, 1, 0.05, 39.33, 364.16)"></circle>
        <circle cx="229.21" cy="161.46" r="3.37" transform="translate(55.43 381.48) rotate(-86.86)"></circle>
        <path class="cls-53" d="M220,175.9h0a.61.61,0,0,1-.6-.64l.2-3.68a1.09,1.09,0,0,0-1-1.15h0a1.09,1.09,0,0,0-1.15,1l-.2,3.68a.61.61,0,0,1-.66.57h0a.84.84,0,1,0,.57,1.39l0,.31a1.09,1.09,0,0,0,1,1.15h0a1.09,1.09,0,0,0,1.15-1l0-.31a.84.84,0,1,0,.72-1.32Z"></path>
        <line class="cls-55" x1="231.54" y1="169.58" x2="225.09" y2="169.92"></line>
        <line class="cls-55" x1="210.98" y1="169.02" x2="208.08" y2="168.46"></line>
        <path d="M216.18,167.27l-2.92-.18a.81.81,0,0,1-.76-.85h0a.81.81,0,0,1,.85-.76l2.92.18a.81.81,0,0,1,.76.85h0A.81.81,0,0,1,216.18,167.27Z"></path>
        <path d="M224.64,167.74l-3.42-.19a.81.81,0,0,1-.76-.85h0a.81.81,0,0,1,.85-.76l3.42.19a.81.81,0,0,1,.76.85h0A.81.81,0,0,1,224.64,167.74Z"></path>
        <circle class="cls-56" cx="222.49" cy="171.49" r="3.35" transform="translate(39.05 384.25) rotate(-86.86)"></circle>
        <circle class="cls-56" cx="213.94" cy="170.85" r="3.35" transform="translate(31.61 375.1) rotate(-86.86)"></circle>
        <line class="cls-55" x1="217.01" y1="169.98" x2="219.06" y2="170.1"></line>
        <path d="M224.82,151.39a4,4,0,0,1-4.19,3.59,3.67,3.67,0,0,1-4-3.54,4,4,0,0,1,4.19-3.59A3.67,3.67,0,0,1,224.82,151.39Z"></path>
        <circle cx="214.31" cy="151.67" r="3.47" transform="translate(60.27 364.28) rotate(-89.37)"></circle>
        <circle cx="208.13" cy="160.4" r="3.07" transform="translate(45.44 366.74) rotate(-89.37)"></circle>
        <circle cx="209.26" cy="155.06" r="3.44" transform="translate(51.89 362.59) rotate(-89.37)"></circle>
        <circle cx="208.33" cy="164.14" r="2.63" transform="translate(41.89 370.64) rotate(-89.37)"></circle>
        <g id="_Group_12" data-name="&lt;Group&gt;">
            <path id="_Path_23" data-name="&lt;Path&gt;" class="cls-10" d="M233.65,172c-.91,1.84-2.35,3.06-3.22,2.73s-.85-2.11.06-4,2.35-3.06,3.22-2.73S234.56,170.12,233.65,172Z"></path>
        </g>
        <path class="cls-57" d="M216.73,180.56c1,1,4,.34,4.54-.89"></path>
        <path class="cls-58" d="M223.64,171.38a4,4,0,0,1-1.91-.07"></path>
        <path class="cls-58" d="M213,170.86a4,4,0,0,0,1.91.16"></path>
        <circle class="cls-51" cx="286.31" cy="284.42" r="12.95" transform="translate(-5.46 5.6) rotate(-1.11)"></circle>
        <circle class="cls-52" cx="251.55" cy="241.06" r="6.81" transform="translate(-96.84 245.19) rotate(-44.46)"></circle>
        <circle class="cls-52" cx="241.29" cy="198.71" r="9.02" transform="translate(-42.78 68.29) rotate(-14.81)"></circle>
        <polygon class="cls-52" points="232.55 200.98 245.22 243.06 258.36 241.28 250 196.34 232.55 200.98"></polygon>
        <polygon class="cls-10" points="287.43 269.35 255.98 238.43 248.65 248.51 284.14 274.5 287.43 269.35"></polygon>
        <polygon class="cls-52" points="284.38 266.21 255.87 237.28 247.58 248.71 280.06 272.91 284.38 266.21"></polygon>
        <path class="cls-52" d="M255.3,249.87a7,7,0,1,0-7-.69,7,7,0,0,0,7,.69Z"></path>
        <path id="_Path_24" data-name="&lt;Path&gt;" class="cls-10" d="M286.36,271.17s7.45-.48,8.89-.88c2.29-.63,5.46-4,5.46-4a1,1,0,0,0,.28-1.22.94.94,0,0,0-1.21-.47s-2.6,1.72-4.25,1.79-3.39-.69-4.49-.7a7.44,7.44,0,0,0-2.49.47l-5.37,2.08Z"></path>
        <path id="_Path_25" data-name="&lt;Path&gt;" class="cls-10" d="M289.45,268.92a5.22,5.22,0,0,1,3.51,1.94c1.72,2,1.28,2.71,3.68,3.71l3.28.36c1.06.11,3.24.56,3.12,1.67l0,.44a1,1,0,0,1-1,.48c-2.23-.38-6.7,1.08-10.1-.5a48.18,48.18,0,0,1-7.5-4.81Z"></path>
        <path id="_Path_26" data-name="&lt;Path&gt;" class="cls-10" d="M287.95,268.94a5.22,5.22,0,0,1,3.35,2.2c1.56,2.11,1.06,2.81,3.38,4l3.25.61c1,.2,3.18.81,3,1.91l-.08.44a1,1,0,0,1-1,.4c-2.19-.55-6.76.55-10-1.28a48.18,48.18,0,0,1-7.1-5.38Z"></path>
        <path id="_Path_27" data-name="&lt;Path&gt;" class="cls-10" d="M286.48,268.75a5.22,5.22,0,0,1,3.06,2.59c1.29,2.29.72,2.91,2.88,4.36l3.15,1c1,.32,3.06,1.18,2.73,2.25l-.13.42a1,1,0,0,1-1.09.27c-2.11-.81-6.78-.26-9.8-2.48a32.69,32.69,0,0,1-5.15-4.8Z"></path>
        <path id="_Path_28" data-name="&lt;Path&gt;" class="cls-10" d="M289.56,269.3a7.59,7.59,0,0,1,4.32.67c3.33,1.58,5.18-.76,5.41-1.95.88-1.43,2-2.64,2.9-2l.37.24a1,1,0,0,1,0,1.12c-1.35,1.81-3.09,7.42-6.82,7.75a48.18,48.18,0,0,1-8.9-.44Z"></path>
        <circle class="cls-10" cx="284.22" cy="270.72" r="2.67" transform="translate(-108.2 261.79) rotate(-42.3)"></circle>
        <path class="cls-10" d="M237.26,279.72c-.31,0-39.63,6.43-39.63,6.43l-.08-11.23L236,273.53Z"></path>
        <circle class="cls-50" cx="150" cy="279.65" r="12.68" transform="translate(-9.89 5.53) rotate(-2.05)"></circle>
        <polygon class="cls-50" points="149.34 267.04 226.16 272.88 225.52 284.78 150.46 292.32 149.34 267.04"></polygon>
        <polygon id="_Path_29" data-name="&lt;Path&gt;" class="cls-59" points="228.2 271.67 228.62 285.69 223.01 285.97 222.6 271.96 228.2 271.67"></polygon>
        <path class="cls-10" d="M200.14,294.7c.31-.08,33.68-1,33.68-1l-1-11.43-36.93,5.27Z"></path>
        <polygon class="cls-51" points="286.28 271.52 210.19 284.14 213.34 294.86 286.56 297.37 286.28 271.52"></polygon>
        <polygon id="_Path_30" data-name="&lt;Path&gt;" class="cls-59" points="207.76 283.16 210.22 296.96 215.76 296.1 213.3 282.3 207.76 283.16"></polygon>
        <g id="_Group_13" data-name="&lt;Group&gt;">
            <path id="_Path_31" data-name="&lt;Path&gt;" class="cls-60" d="M235.9,276a5.28,5.28,0,0,1,.3,3.75,1.1,1.1,0,0,0,.23,1.11l11.13,12.54a1.91,1.91,0,0,0,2.25.44l1.17-.53-10.23-23.84-6.93,3.15a.47.47,0,0,0,0,.84A5.37,5.37,0,0,1,235.9,276Z"></path>
            <path id="_Path_32" data-name="&lt;Path&gt;" class="cls-61" d="M241.76,268.22l10.5,24.49-1.92.87-10.22-23.82c-.11-.26-.08-.76.18-.88Z"></path>
            <path id="_Path_33" data-name="&lt;Path&gt;" class="cls-27" d="M240.17,283.35a.37.37,0,0,1,.5.19.39.39,0,0,1-.2.51.37.37,0,0,1-.5-.19A.39.39,0,0,1,240.17,283.35Z"></path>
            <path id="_Path_34" data-name="&lt;Path&gt;" class="cls-27" d="M238.7,281.71a.37.37,0,0,1,.5.19.39.39,0,0,1-.2.51.37.37,0,0,1-.5-.19A.39.39,0,0,1,238.7,281.71Z"></path>
            <path id="_Path_35" data-name="&lt;Path&gt;" class="cls-27" d="M237.24,280.07a.37.37,0,0,1,.5.19.39.39,0,0,1-.2.51.37.37,0,0,1-.5-.19A.39.39,0,0,1,237.24,280.07Z"></path>
        </g>
        <g id="_Group_14" data-name="&lt;Group&gt;">
            <path id="_Path_36" data-name="&lt;Path&gt;" class="cls-60" d="M200.24,290.11a5.28,5.28,0,0,0,.07,3.76,1.1,1.1,0,0,1-.12,1.12l-9.82,13.59a1.91,1.91,0,0,1-2.2.66l-1.22-.41,7.8-24.74,7.21,2.45a.47.47,0,0,1,.12.83A5.37,5.37,0,0,0,200.24,290.11Z"></path>
            <path id="_Path_37" data-name="&lt;Path&gt;" class="cls-61" d="M193.63,283l-8,25.41,2,.68,7.79-24.72c.08-.27,0-.76-.27-.86Z"></path>
            <path id="_Path_38" data-name="&lt;Path&gt;" class="cls-27" d="M196.72,297.87a.37.37,0,0,0-.47.24.39.39,0,0,0,.25.48.37.37,0,0,0,.47-.24A.39.39,0,0,0,196.72,297.87Z"></path>
            <path id="_Path_39" data-name="&lt;Path&gt;" class="cls-27" d="M198,296.09a.37.37,0,0,0-.47.24.39.39,0,0,0,.25.48.37.37,0,0,0,.47-.24A.39.39,0,0,0,198,296.09Z"></path>
            <path id="_Path_40" data-name="&lt;Path&gt;" class="cls-27" d="M199.31,294.3a.37.37,0,0,0-.47.24.39.39,0,0,0,.25.48.37.37,0,0,0,.47-.24A.39.39,0,0,0,199.31,294.3Z"></path>
        </g>
    </g>
</svg>